{"title":"The.Naked.Jungle.1954.HQ.720p.x264.AC3.[FrOnkY]","uid":12514073,"size":3634983908,"categoryP":"video","categoryS":"hd___movies","magnet":"?xt=urn:btih:49168bc0e5247088a92c42b2289ad068977e1b7c&amp;dn=The.Naked.Jungle.1954.HQ.720p.x264.AC3.%5BFrOnkY%5D&amp;tr=udp%3A%2F%2Ftracker.leechers-paradise.org%3A6969&amp;tr=udp%3A%2F%2Fzer0day.ch%3A1337&amp;tr=udp%3A%2F%2Fopen.demonii.com%3A1337&amp;tr=udp%3A%2F%2Ftracker.coppersurfer.tk%3A6969&amp;tr=udp%3A%2F%2Fexodus.desync.com%3A6969","seeders":1,"leechers":0,"uploader":"HDmEntEs","files":1,"time":1443622991,"description":"The.Naked.Jungle.1954.HQ.720p.x264.AC3.[FrOnkY].mkv\r\n\r\n\r\nFormat                                   : Matroska\r\nFormat version                           : Version 4 / Version 2\r\nFile size                                : 3.39 GiB\r\nDuration                                 : 1h 35mn\r\nOverall bit rate                         : 5 080 Kbps\r\nWriting application                      : mkvmerge v6.9.1 ('Blue Panther')\r\nWriting library                          : libebml v1.3.0 + libmatroska v1.4.1\r\nAttachements                             : TheNakedJungle.jpg\r\n\r\nVideo\r\nID                                       : 1\r\nFormat                                   : AVC\r\nFormat/Info                              : Advanced Video Codec\r\nFormat profile                           : High L4.1\r\nFormat settings, CABAC                   : Yes\r\nFormat settings, ReFrames                : 11 frames\r\nCodec ID                                 : V_MPEG4/ISO/AVC\r\nDuration                                 : 1h 35mn\r\nBit rate                                 : 4 884 Kbps\r\nWidth                                    : 980 pixels\r\nHeight                                   : 720 pixels\r\nDisplay aspect ratio                     : 4:3\r\nFrame rate mode                          : Constant\r\nFrame rate                               : 23.976 fps\r\nColor space                              : YUV\r\nChroma subsampling                       : 4:2:0\r\nBit depth                                : 8 bits\r\nScan type                                : Progressive\r\nBits/(Pixel*Frame)                       : 0.289\r\nStream size                              : 3.19 GiB (94%)\r\nWriting library                          : x264 core 142 r2491 24e4fed\r\nLanguage                                 : English\r\nDefault                                  : Yes\r\nForced                                   : No\r\n\r\nAudio\r\nID                                       : 2\r\nFormat                                   : AC-3\r\nFormat/Info                              : Audio Coding 3\r\nMode extension                           : CM (complete main)\r\nFormat settings, Endianness              : Big\r\nCodec ID                                 : A_AC3\r\nDuration                                 : 1h 35mn\r\nBit rate mode                            : Constant\r\nBit rate                                 : 192 Kbps\r\nChannel(s)                               : 2 channels\r\nChannel positions                        : Front: L R\r\nSampling rate                            : 48.0 KHz\r\nBit depth                                : 16 bits\r\nStream size                              : 131 MiB (4%)\r\nLanguage                                 : English\r\nDefault                                  : Yes\r\nForced                                   : No\r\n\r\nText #1\r\nID                                       : 3\r\nFormat                                   : UTF-8\r\nCodec ID                                 : S_TEXT/UTF8\r\nCodec ID/Info                            : UTF-8 Plain Text\r\nLanguage                                 : English\r\nDefault                                  : No\r\nForced                                   : No\r\n\r\nText #2\r\nID                                       : 4\r\nFormat                                   : UTF-8\r\nCodec ID                                 : S_TEXT/UTF8\r\nCodec ID/Info                            : UTF-8 Plain Text\r\nLanguage                                 : Spanish\r\nDefault                                  : No\r\nForced                                   : No\r\n\r\nText #3\r\nID                                       : 5\r\nFormat                                   : UTF-8\r\nCodec ID                                 : S_TEXT/UTF8\r\nCodec ID/Info                            : UTF-8 Plain Text\r\nLanguage                                 : Spanish\r\nDefault                                  : No\r\nForced                                   : No\r\n\r\nText #4\r\nID                                       : 6\r\nFormat                                   : UTF-8\r\nCodec ID                                 : S_TEXT/UTF8\r\nCodec ID/Info                            : UTF-8 Plain Text\r\nLanguage                                 : French\r\nDefault                                  : No\r\nForced                                   : No\r\n\r\nText #5\r\nID                                       : 7\r\nFormat                                   : UTF-8\r\nCodec ID                                 : S_TEXT/UTF8\r\nCodec ID/Info                            : UTF-8 Plain Text\r\nLanguage                                 : German\r\nDefault                                  : No\r\nForced                                   : No\r\n\r\nText #6\r\nID                                       : 8\r\nFormat                                   : UTF-8\r\nCodec ID                                 : S_TEXT/UTF8\r\nCodec ID/Info                            : UTF-8 Plain Text\r\nLanguage                                 : Italian\r\nDefault                                  : No\r\nForced                                   : No\r\n\r\nText #7\r\nID                                       : 9\r\nFormat                                   : UTF-8\r\nCodec ID                                 : S_TEXT/UTF8\r\nCodec ID/Info                            : UTF-8 Plain Text\r\nLanguage                                 : Portuguese\r\nDefault                                  : No\r\nForced                                   : No\r\n\r\nMenu\r\n00:00:00.000                             : en:Chapter 01\r\n00:05:52.111                             : en:Chapter 02\r\n00:11:55.222                             : en:Chapter 03\r\n00:18:50.999                             : en:Chapter 04\r\n00:27:28.111                             : en:Chapter 05\r\n00:33:18.444                             : en:Chapter 06\r\n00:39:55.555                             : en:Chapter 07\r\n00:48:07.222                             : en:Chapter 08\r\n00:56:07.111                             : en:Chapter 09\r\n01:05:03.333                             : en:Chapter 10\r\n01:11:04.888                             : en:Chapter 11\r\n01:17:25.666                             : en:Chapter 12\r\n01:25:45.777                             : en:Chapter 13\r\n01:30:26.222                             : en:Chapter 14\r\n\r\n\r\nSD - HQ\r\n \nhttp://i.imgur.com/rCMzlKb.png \nhttp://i.imgur.com/29WkNmS.jpg\r\n \nhttp://i.imgur.com/RHKQbWW.png","torrent":{"xt":"urn:btih:49168bc0e5247088a92c42b2289ad068977e1b7c","amp;dn":"The.Naked.Jungle.1954.HQ.720p.x264.AC3.%5BFrOnkY%5D","amp;tr":["udp%3A%2F%2Ftracker.leechers-paradise.org%3A6969","udp%3A%2F%2Fzer0day.ch%3A1337","udp%3A%2F%2Fopen.demonii.com%3A1337","udp%3A%2F%2Ftracker.coppersurfer.tk%3A6969","udp%3A%2F%2Fexodus.desync.com%3A6969"],"infoHash":"49168bc0e5247088a92c42b2289ad068977e1b7c","infoHashBuffer":{"type":"Buffer","data":[73,22,139,192,229,36,112,136,169,44,66,178,40,154,208,104,151,126,27,124]},"announce":[],"urlList":[]}}